<?xml version="1.0" encoding="UTF-8" standalone="no"?>
<svg
   xmlns:dc="http://purl.org/dc/elements/1.1/"
   xmlns:cc="http://creativecommons.org/ns#"
   xmlns:rdf="http://www.w3.org/1999/02/22-rdf-syntax-ns#"
   xmlns:svg="http://www.w3.org/2000/svg"
   xmlns="http://www.w3.org/2000/svg"
   xmlns:sodipodi="http://sodipodi.sourceforge.net/DTD/sodipodi-0.dtd"
   xmlns:inkscape="http://www.inkscape.org/namespaces/inkscape"
   version="1.1"
   id="svg2"
   xml:space="preserve"
   width="1056"
   height="816"
   viewBox="0 0 1056 816"
   sodipodi:docname="ccrg.ai"
   inkscape:version="1.0.2 (e86c870879, 2021-01-15)"><metadata
     id="metadata8"><rdf:RDF><cc:Work
         rdf:about=""><dc:format>image/svg+xml</dc:format><dc:type
           rdf:resource="http://purl.org/dc/dcmitype/StillImage" /><dc:title></dc:title></cc:Work></rdf:RDF></metadata><defs
     id="defs6"><clipPath
       clipPathUnits="userSpaceOnUse"
       id="clipPath18"><path
         d="M 0,612 H 792 V 0 H 0 Z"
         id="path16" /></clipPath><clipPath
       clipPathUnits="userSpaceOnUse"
       id="clipPath42"><path
         d="M 0,612 H 792 V 0 H 0 Z"
         id="path40" /></clipPath><clipPath
       clipPathUnits="userSpaceOnUse"
       id="clipPath74"><path
         d="M 0,612 H 792 V 0 H 0 Z"
         id="path72" /></clipPath><clipPath
       clipPathUnits="userSpaceOnUse"
       id="clipPath82"><path
         d="m 250.136,322.702 h 51.147 v -60.006 h -51.147 z"
         id="path80" /></clipPath><clipPath
       clipPathUnits="userSpaceOnUse"
       id="clipPath98"><path
         d="M 328.523,322.702 H 379.67 V 262.696 H 328.523 Z"
         id="path96" /></clipPath><clipPath
       clipPathUnits="userSpaceOnUse"
       id="clipPath114"><path
         d="m 489.247,323.205 h 51.806 v -59.768 h -51.806 z"
         id="path112" /></clipPath><clipPath
       clipPathUnits="userSpaceOnUse"
       id="clipPath130"><path
         d="m 411.27,321.095 h 1.998 V 264.08 h -1.998 z"
         id="path128" /></clipPath><clipPath
       clipPathUnits="userSpaceOnUse"
       id="clipPath146"><path
         d="m 423.088,321.654 h 35.676 v -37.936 h -35.676 z"
         id="path144" /></clipPath><clipPath
       clipPathUnits="userSpaceOnUse"
       id="clipPath162"><path
         d="m 443.294,279.25 h 11.694 v -16.561 h -11.694 z"
         id="path160" /></clipPath></defs><sodipodi:namedview
     pagecolor="#ffffff"
     bordercolor="#666666"
     borderopacity="1"
     objecttolerance="10"
     gridtolerance="10"
     guidetolerance="10"
     inkscape:pageopacity="0"
     inkscape:pageshadow="2"
     inkscape:window-width="1920"
     inkscape:window-height="1017"
     id="namedview4"
     showgrid="false"
     inkscape:zoom="1.3968037"
     inkscape:cx="562.37997"
     inkscape:cy="494.09842"
     inkscape:window-x="-8"
     inkscape:window-y="-8"
     inkscape:window-maximized="1"
     inkscape:current-layer="g10" /><g
     id="g10"
     inkscape:groupmode="layer"
     inkscape:label="ccrg"
     transform="matrix(1.3333333,0,0,-1.3333333,0,816)"><g
       id="g12"><g
         id="g14"
         clip-path="url(#clipPath18)"><g
           id="g20"
           transform="translate(522.1934,218.6172)"><path
             d="m 0,0 h -252.387 c -7.381,0 -13.42,6.038 -13.42,13.419 0,7.381 6.039,13.42 13.42,13.42 H 0 c 7.381,0 13.42,-6.039 13.42,-13.42 C 13.42,6.038 7.381,0 0,0"
             style="fill:#b3342b;fill-opacity:1;fill-rule:nonzero;stroke:none"
             id="path22" /></g><g
           id="g24"
           transform="translate(312.1934,208.71)"><path
             d="m 0,0 c 0.75,-1.849 1.868,-3.52 3.127,-5.052 1.264,-1.533 2.668,-2.947 4.147,-4.27 2.961,-2.651 6.191,-4.986 9.513,-7.159 6.65,-4.347 13.682,-8.117 20.893,-11.432 14.736,-5.8 30.664,-8.684 46.511,-8.484 7.929,0.068 15.856,0.887 23.627,2.481 1.931,0.452 3.875,0.853 5.795,1.347 1.907,0.548 3.84,1.005 5.723,1.626 l 2.829,0.917 c 0.951,0.292 1.87,0.615 2.791,0.994 1.843,0.733 3.669,1.511 5.479,2.329 7.231,3.275 14.245,7.084 20.743,11.654 3.236,2.296 6.368,4.764 9.179,7.572 2.832,2.784 5.349,5.912 7.256,9.413 -1.836,-3.539 -4.297,-6.731 -7.084,-9.582 -2.767,-2.878 -5.863,-5.421 -9.069,-7.795 -6.473,-4.681 -13.48,-8.578 -20.708,-11.955 -1.81,-0.842 -3.637,-1.646 -5.485,-2.406 l -1.397,-0.555 -1.428,-0.474 -2.848,-0.935 c -1.897,-0.633 -3.841,-1.101 -5.759,-1.66 -1.933,-0.505 -3.889,-0.917 -5.832,-1.38 -7.823,-1.634 -15.808,-2.492 -23.8,-2.59 -15.986,-0.116 -31.994,2.765 -46.843,8.784 -7.214,3.421 -14.217,7.272 -20.844,11.724 -3.291,2.251 -6.487,4.662 -9.407,7.385 C 5.65,-8.143 4.27,-6.693 3.031,-5.129 1.8,-3.564 0.711,-1.863 0,0"
             style="fill:#8e9293;fill-opacity:1;fill-rule:nonzero;stroke:none"
             id="path26" /></g><g
           id="g28"
           transform="translate(322.4141,207.5029)"><path
             d="m 0,0 c 2.409,-2.343 5.065,-4.407 7.805,-6.338 2.742,-1.929 5.588,-3.71 8.495,-5.377 2.903,-1.675 5.85,-3.273 8.846,-4.776 1.498,-0.753 3.006,-1.485 4.526,-2.185 0.377,-0.172 0.767,-0.356 1.136,-0.51 l 1.179,-0.424 2.359,-0.849 c 12.637,-4.39 26.014,-6.668 39.389,-6.563 13.363,0.055 26.755,2.373 39.302,6.951 6.215,2.473 12.265,5.407 18.042,8.796 5.769,3.39 11.335,7.224 16.093,11.979 -4.633,-4.875 -10.104,-8.898 -15.824,-12.428 -5.754,-3.492 -11.78,-6.528 -18.003,-9.115 -12.659,-4.695 -26.117,-7.103 -39.606,-7.169 -13.48,-0.018 -26.976,2.246 -39.647,6.848 l -2.369,0.888 -1.184,0.444 c -0.404,0.175 -0.771,0.355 -1.155,0.536 -1.52,0.725 -3.024,1.479 -4.516,2.254 -2.983,1.553 -5.93,3.178 -8.806,4.92 -2.878,1.74 -5.69,3.593 -8.394,5.59 C 4.967,-4.529 2.354,-2.398 0,0"
             style="fill:#8e9293;fill-opacity:1;fill-rule:nonzero;stroke:none"
             id="path30" /></g></g></g><text
       transform="matrix(1,0,0,-1,272.7944,227.2187)"
       style="font-variant:normal;font-weight:normal;font-stretch:normal;font-size:14.2929px;font-family:Abel;-inkscape-font-specification:Abel-Regular;writing-mode:lr-tb;fill:#ffffff;fill-opacity:1;fill-rule:nonzero;stroke:none"
       id="text34"><tspan
         x="0 8.9473553 17.751781 27.127924 34.831799 43.750568 51.840347 59.315536 64.060776 73.008133 82.098419 90.188202 99.064087 106.76796 111.51321 120.43198 129.2364 138.11229 145.39024 153.48003 162.5703 171.48907 179.57886 188.955 196.65887 201.40411 210.4944 219.41316 228.50345 237.59373"
         y="0"
         sodipodi:role="line"
         id="tspan32">CENTRAL COAST RESTAURANT GROUP</tspan></text><g
       id="g36"><g
         id="g38"
         clip-path="url(#clipPath42)"><g
           id="g44"
           transform="translate(348.0244,378.7222)"><path
             d="m 0,0 c -4.806,-2.781 -9.435,-5.84 -13.809,-9.225 -4.371,-3.386 -8.533,-7.043 -12.351,-11.037 -3.877,-3.937 -7.411,-8.203 -10.664,-12.674 l -2.382,-3.397 -2.25,-3.489 -2.15,-3.557 -2.03,-3.633 1.796,3.76 1.962,3.68 2.142,3.583 2.284,3.496 c 3.146,4.598 6.721,8.9 10.575,12.927 3.912,3.971 8.105,7.673 12.608,10.953 C -9.769,-5.332 -5.001,-2.418 0,0"
             style="fill:#8e9293;fill-opacity:1;fill-rule:nonzero;stroke:none"
             id="path46" /></g><g
           id="g48"
           transform="translate(490.4287,332.8047)"><path
             d="m 0,0 c -3.013,5.585 -6.426,10.939 -10.272,15.957 -3.847,5.016 -8.073,9.741 -12.719,14.021 -4.591,4.339 -9.593,8.233 -14.863,11.724 l -4.005,2.538 -4.119,2.359 -4.205,2.211 -4.296,2.041 4.409,-1.801 4.32,-2.017 4.208,-2.248 4.105,-2.437 c 5.397,-3.383 10.443,-7.32 15.127,-11.64 4.63,-4.378 8.907,-9.14 12.651,-14.293 C -5.914,11.266 -2.646,5.772 0,0"
             style="fill:#8e9293;fill-opacity:1;fill-rule:nonzero;stroke:none"
             id="path50" /></g><g
           id="g52"
           transform="translate(352.7412,389.4385)"><path
             d="m 0,0 c -6.132,-2.865 -12.04,-6.175 -17.618,-9.967 -5.576,-3.793 -10.863,-8.009 -15.707,-12.696 -4.9,-4.627 -9.353,-9.717 -13.392,-15.117 l -2.947,-4.112 -2.765,-4.241 -2.612,-4.343 -2.436,-4.45 2.203,4.576 2.424,4.47 2.66,4.338 2.852,4.216 c 3.939,5.533 8.437,10.663 13.323,15.386 4.94,4.664 10.267,8.929 15.973,12.611 C -12.339,-5.646 -6.298,-2.487 0,0"
             style="fill:#8e9293;fill-opacity:1;fill-rule:nonzero;stroke:none"
             id="path54" /></g><g
           id="g56"
           transform="translate(496.7354,337.2456)"><path
             d="m 0,0 c -3.566,6.524 -7.671,12.738 -12.326,18.503 -4.655,5.764 -9.805,11.128 -15.458,15.909 -5.602,4.841 -11.697,9.1 -18.115,12.798 l -4.878,2.665 -5.005,2.426 -5.107,2.217 -5.209,1.983 5.304,-1.736 5.209,-2.015 5.09,-2.31 4.973,-2.559 c 6.543,-3.586 12.689,-7.888 18.386,-12.711 5.647,-4.882 10.852,-10.285 15.41,-16.192 C -7.165,13.075 -3.201,6.715 0,0"
             style="fill:#8e9293;fill-opacity:1;fill-rule:nonzero;stroke:none"
             id="path58" /></g><g
           id="g60"
           transform="translate(386.3799,389.728)"><path
             d="m 0,0 c -7.889,-8.066 -14.795,-8.265 -15.44,0.124 -0.561,7.363 2.045,13.604 10.834,20.002 -29.605,-12.924 -40.711,-44.907 -17.614,-71.761 -2.563,9.166 -3.132,19.237 8.49,24.562 -12.142,-21.461 18.488,-29.277 10.223,-8.468 -4.778,12.007 -3.637,31.87 20.896,36.947 -15.29,-14.5 -14.228,-24.48 -8.942,-38.763 2.657,-7.179 10.647,-12.726 11.572,-0.605 0.383,4.99 -3.024,11.589 -9.182,19.55 27.184,-8.745 26.428,-33.125 26.428,-33.125 20.089,16.881 16.392,31.941 16.185,34.339 C 52.465,-7.562 46.076,3.452 36.109,9.75 55.573,-34.336 12.174,-27.173 25.35,4.559 29.175,13.765 28.435,35.11 4.594,41.987 16.662,27.405 10.256,10.506 0,0"
             style="fill:#b3342b;fill-opacity:1;fill-rule:nonzero;stroke:none"
             id="path62" /></g></g></g><text
       transform="matrix(1,0,0,-1,235.5757,255.2295)"
       style="font-variant:normal;font-weight:900;font-stretch:normal;font-size:107.416px;font-family:'Montserrat Black';-inkscape-font-specification:Montserrat-Black;writing-mode:lr-tb;fill:#201d1c;fill-opacity:1;fill-rule:nonzero;stroke:none"
       id="text66"><tspan
         x="0 78.306625 158.2245 238.2498"
         y="0"
         sodipodi:role="line"
         id="tspan64">CCRG</tspan></text><g
       id="g68"><g
         id="g70"
         clip-path="url(#clipPath74)"><g
           id="g76"><g
             id="g78" /><g
             id="g90"><g
               clip-path="url(#clipPath82)"
               opacity="0.509995"
               id="g88"><g
                 transform="translate(301.2832,315.5718)"
                 id="g86"><path
                   d="m 0,0 c -4.727,3.183 -10.205,5.187 -15.793,5.789 -5.592,0.629 -11.276,-0.28 -16.409,-2.463 -2.564,-1.108 -5.027,-2.454 -7.201,-4.145 -2.169,-1.698 -4.083,-3.72 -5.54,-6.044 -2.991,-4.623 -4.221,-10.232 -4.204,-15.769 0.004,-2.774 0.277,-5.574 0.87,-8.274 0.222,-1.245 0.853,-2.521 1.446,-3.757 0.623,-1.232 1.326,-2.427 2.1,-3.576 3.083,-4.608 7.439,-8.336 12.497,-10.644 2.536,-1.141 5.23,-1.93 7.988,-2.413 2.765,-0.487 5.566,-0.595 8.354,-0.258 5.604,0.608 10.913,3.015 15.666,6.137 -4.498,-3.489 -9.79,-6.141 -15.529,-7.104 -5.755,-0.919 -11.706,-0.005 -17.104,2.212 -5.41,2.259 -10.083,6.19 -13.43,11.001 -0.845,1.199 -1.592,2.467 -2.264,3.774 -0.332,0.657 -0.646,1.323 -0.931,2.009 -0.143,0.344 -0.277,0.688 -0.405,1.057 -0.142,0.455 -0.203,0.755 -0.294,1.133 -0.644,2.867 -0.942,5.776 -0.963,8.702 0.017,5.819 1.326,11.827 4.615,16.8 1.617,2.484 3.718,4.632 6.064,6.405 2.356,1.782 4.978,3.124 7.677,4.197 5.413,2.156 11.4,2.877 17.125,1.989 2.857,-0.463 5.647,-1.268 8.286,-2.406 C -4.74,3.222 -2.219,1.802 0,0"
                   style="fill:#b3342b;fill-opacity:1;fill-rule:nonzero;stroke:none"
                   id="path84" /></g></g></g></g><g
           id="g92"><g
             id="g94" /><g
             id="g106"><g
               clip-path="url(#clipPath98)"
               opacity="0.509995"
               id="g104"><g
                 transform="translate(379.6699,315.5718)"
                 id="g102"><path
                   d="m 0,0 c -4.727,3.183 -10.205,5.187 -15.793,5.789 -5.592,0.629 -11.276,-0.28 -16.408,-2.463 -2.565,-1.108 -5.028,-2.454 -7.202,-4.145 -2.169,-1.698 -4.083,-3.72 -5.54,-6.044 -2.991,-4.623 -4.221,-10.232 -4.203,-15.769 0.003,-2.774 0.277,-5.574 0.869,-8.274 0.222,-1.245 0.854,-2.521 1.447,-3.757 0.622,-1.232 1.326,-2.427 2.1,-3.576 3.083,-4.608 7.439,-8.336 12.497,-10.644 2.535,-1.141 5.229,-1.93 7.987,-2.413 2.766,-0.487 5.566,-0.595 8.355,-0.258 5.603,0.608 10.912,3.015 15.665,6.137 -4.497,-3.489 -9.79,-6.141 -15.528,-7.104 -5.756,-0.919 -11.707,-0.005 -17.104,2.212 -5.411,2.259 -10.083,6.19 -13.431,11.001 -0.845,1.199 -1.592,2.467 -2.263,3.774 -0.333,0.657 -0.647,1.323 -0.931,2.009 -0.143,0.344 -0.277,0.688 -0.406,1.057 -0.142,0.455 -0.203,0.755 -0.294,1.133 -0.643,2.867 -0.942,5.776 -0.963,8.702 0.017,5.819 1.327,11.827 4.616,16.8 1.616,2.484 3.718,4.632 6.064,6.405 2.355,1.782 4.978,3.124 7.677,4.197 5.412,2.156 11.4,2.877 17.124,1.989 2.857,-0.463 5.647,-1.268 8.286,-2.406 C -4.74,3.222 -2.219,1.802 0,0"
                   style="fill:#b3342b;fill-opacity:1;fill-rule:nonzero;stroke:none"
                   id="path100" /></g></g></g></g><g
           id="g108"><g
             id="g110" /><g
             id="g122"><g
               clip-path="url(#clipPath114)"
               opacity="0.509995"
               id="g120"><g
                 transform="translate(541.0537,316.5762)"
                 id="g118"><path
                   d="m 0,0 c -4.864,3.02 -10.408,4.887 -16.038,5.438 -2.816,0.255 -5.656,0.214 -8.437,-0.224 -2.779,-0.439 -5.496,-1.231 -8.074,-2.343 -5.168,-2.222 -9.77,-5.694 -12.799,-10.353 -3.04,-4.651 -4.398,-10.26 -4.528,-15.833 -0.055,-2.79 0.158,-5.611 0.694,-8.332 0.22,-1.257 0.769,-2.566 1.334,-3.815 0.58,-1.254 1.267,-2.462 2.029,-3.618 1.525,-2.313 3.402,-4.389 5.544,-6.142 2.154,-1.74 4.582,-3.132 7.166,-4.154 5.205,-1.986 10.916,-2.584 16.499,-1.914 2.791,0.35 5.569,0.936 8.237,1.853 2.673,0.903 5.245,2.11 7.562,3.7 l -0.169,-0.339 c 0.135,5.49 0.231,10.981 0.421,16.472 0.192,-5.491 0.287,-10.982 0.422,-16.472 l 0.005,-0.205 -0.175,-0.134 c -1.163,-0.886 -2.394,-1.676 -3.683,-2.357 -1.3,-0.655 -2.623,-1.268 -3.991,-1.763 -2.723,-1.028 -5.562,-1.72 -8.44,-2.17 -2.882,-0.424 -5.822,-0.564 -8.756,-0.302 -2.912,0.303 -5.805,0.946 -8.569,1.982 -2.755,1.059 -5.364,2.521 -7.687,4.363 -2.31,1.853 -4.338,4.056 -5.99,6.511 -0.825,1.227 -1.569,2.51 -2.205,3.851 -0.614,1.35 -1.235,2.695 -1.509,4.269 -0.544,2.906 -0.734,5.835 -0.651,8.769 0.189,5.84 1.672,11.788 4.975,16.743 1.637,2.468 3.703,4.652 6.053,6.432 2.359,1.784 4.967,3.163 7.67,4.256 5.423,2.171 11.404,2.971 17.154,2.136 2.873,-0.409 5.685,-1.16 8.367,-2.217 C -4.889,3.034 -2.313,1.698 0,0"
                   style="fill:#b3342b;fill-opacity:1;fill-rule:nonzero;stroke:none"
                   id="path116" /></g></g></g></g><g
           id="g124"><g
             id="g126" /><g
             id="g138"><g
               clip-path="url(#clipPath130)"
               opacity="0.509995"
               id="g136"><g
                 transform="translate(412.2686,321.0957)"
                 id="g134"><path
                   d="M 0,0 C 0.414,-4.751 0.631,-9.503 0.777,-14.254 0.937,-19.006 0.979,-23.757 1,-28.508 0.982,-33.259 0.939,-38.011 0.78,-42.762 0.634,-47.513 0.417,-52.265 0,-57.016 c -0.416,4.751 -0.634,9.503 -0.78,14.254 -0.158,4.751 -0.201,9.503 -0.219,14.254 0.02,4.751 0.062,9.502 0.222,14.254 C -0.63,-9.503 -0.413,-4.751 0,0"
                   style="fill:#b3342b;fill-opacity:1;fill-rule:nonzero;stroke:none"
                   id="path132" /></g></g></g></g><g
           id="g140"><g
             id="g142" /><g
             id="g154"><g
               clip-path="url(#clipPath146)"
               opacity="0.509995"
               id="g152"><g
                 transform="translate(423.0879,321.4009)"
                 id="g150"><path
                   d="m 0,0 c 3.749,0.253 7.509,0.313 11.282,0.193 3.766,-0.172 7.566,-0.583 11.258,-1.679 3.663,-1.071 7.315,-2.98 9.829,-6.153 1.241,-1.579 2.109,-3.436 2.629,-5.35 0.523,-1.919 0.7,-3.898 0.676,-5.842 -0.039,-3.84 -0.906,-7.912 -3.299,-11.18 -2.427,-3.247 -6.105,-5.239 -9.801,-6.229 -3.72,-1.032 -7.531,-1.34 -11.297,-1.436 -3.774,-0.036 -7.526,0.069 -11.277,0.298 3.75,0.231 7.504,0.321 11.222,0.693 3.713,0.325 7.417,0.847 10.899,1.952 3.455,1.113 6.691,2.961 8.712,5.842 2.046,2.853 2.819,6.485 2.848,10.096 0.105,3.594 -0.688,7.204 -2.8,10.013 -2.109,2.819 -5.371,4.642 -8.81,5.827 -3.47,1.168 -7.158,1.788 -10.862,2.189 C 7.501,-0.326 3.752,-0.19 0,0"
                   style="fill:#b3342b;fill-opacity:1;fill-rule:nonzero;stroke:none"
                   id="path148" /></g></g></g></g><g
           id="g156"><g
             id="g158" /><g
             id="g170"><g
               clip-path="url(#clipPath162)"
               opacity="0.509995"
               id="g168"><g
                 transform="translate(454.9883,262.6895)"
                 id="g166"><path
                   d="m 0,0 c -1.312,1.142 -2.464,2.396 -3.559,3.691 -1.093,1.296 -2.131,2.632 -3.105,4.013 -0.979,1.377 -1.888,2.803 -2.744,4.267 -0.855,1.465 -1.652,2.969 -2.285,4.59 1.314,-1.14 2.465,-2.395 3.56,-3.69 C -7.04,11.574 -6,10.24 -5.03,8.857 -4.055,7.478 -3.144,6.053 -2.289,4.589 -1.435,3.124 -0.637,1.619 0,0"
                   style="fill:#b3342b;fill-opacity:1;fill-rule:nonzero;stroke:none"
                   id="path164" /></g></g></g></g></g></g></g></svg>
